<svg width="39" height="50" viewBox="0 0 39 50" fill="none" xmlns="http://www.w3.org/2000/svg">
<g clip-path="url(#clip0)">
<path d="M13.1653 29.5967C13.1653 38.2774 18.1145 44.6653 28.1073 48.8411L27.4782 49.9999C16.9919 45.6177 11.7016 38.7903 11.7016 29.5967C11.7016 25.2096 14.1452 22.5612 18.8887 21.8314L19.1202 21.8282C23.8766 22.433 26.329 25.0636 26.329 29.5241C26.329 32.5927 27.9677 34.2435 31.4274 34.6507C34.9145 34.0588 36.5686 32.3959 36.5686 29.5241C36.5686 25.8975 35.725 21.9596 33.7169 18.7112C30.9008 14.1572 26.1605 11.5524 19.0153 11.5524C11.9468 11.5524 7.19839 14.3798 4.32016 19.2548C2.35081 22.5894 1.4621 26.6185 1.4621 29.5967C1.4621 31.2951 1.63548 32.754 2.00242 34.4967C2.16371 35.2628 2.83065 38.0322 2.91048 38.3838L1.47581 38.6354C1.39919 38.2983 0.729839 35.5145 0.564516 34.7306C0.182258 32.9153 0 31.379 0 29.5967C0 26.429 0.932258 22.2032 3.02177 18.6644C6.14032 13.383 11.371 10.2693 19.0161 10.2693C26.7097 10.2693 31.9371 13.1403 35.0032 18.0999C37.146 21.5644 38.0315 25.7024 38.0315 29.5241C38.0315 33.0644 35.8202 35.2475 31.5815 35.9314L31.3597 35.937C27.0935 35.4725 24.8677 33.2749 24.8677 29.5241C24.8677 25.7233 22.9677 23.6499 19.0266 23.1144C15.0726 23.7564 13.1653 25.8596 13.1653 29.5967Z" fill="#5281D7"/>
<path d="M13.1653 29.5967C13.1653 38.2774 18.1145 44.6653 28.1073 48.8411L27.4782 49.9999C16.9919 45.6177 11.7016 38.7903 11.7016 29.5967C11.7016 25.2096 14.1452 22.5612 18.8887 21.8314L19.1202 21.8282C23.8766 22.433 26.329 25.0636 26.329 29.5241C26.329 32.5927 27.9677 34.2435 31.4274 34.6507C34.9145 34.0588 36.5686 32.3959 36.5686 29.5241C36.5686 25.8975 35.725 21.9596 33.7169 18.7112C30.9008 14.1572 26.1605 11.5524 19.0153 11.5524C11.9468 11.5524 7.19839 14.3798 4.32016 19.2548C2.35081 22.5894 1.4621 26.6185 1.4621 29.5967C1.4621 31.2951 1.63548 32.754 2.00242 34.4967C2.16371 35.2628 2.83065 38.0322 2.91048 38.3838L1.47581 38.6354C1.39919 38.2983 0.729839 35.5145 0.564516 34.7306C0.182258 32.9153 0 31.379 0 29.5967C0 26.429 0.932258 22.2032 3.02177 18.6644C6.14032 13.383 11.371 10.2693 19.0161 10.2693C26.7097 10.2693 31.9371 13.1403 35.0032 18.0999C37.146 21.5644 38.0315 25.7024 38.0315 29.5241C38.0315 33.0644 35.8202 35.2475 31.5815 35.9314L31.3597 35.937C27.0935 35.4725 24.8677 33.2749 24.8677 29.5241C24.8677 25.7233 22.9677 23.6499 19.0266 23.1144C15.0726 23.7564 13.1653 25.8596 13.1653 29.5967Z" fill="#5281D7"/>
<path d="M13.1653 29.5967C13.1653 38.2774 18.1145 44.6653 28.1073 48.8411L27.4782 49.9999C16.9919 45.6177 11.7016 38.7903 11.7016 29.5967C11.7016 25.2096 14.1452 22.5612 18.8887 21.8314L19.1202 21.8282C23.8766 22.433 26.329 25.0636 26.329 29.5241C26.329 32.5927 27.9677 34.2435 31.4274 34.6507C34.9145 34.0588 36.5686 32.3959 36.5686 29.5241C36.5686 25.8975 35.725 21.9596 33.7169 18.7112C30.9008 14.1572 26.1605 11.5524 19.0153 11.5524C11.9468 11.5524 7.19839 14.3798 4.32016 19.2548C2.35081 22.5894 1.4621 26.6185 1.4621 29.5967C1.4621 31.2951 1.63548 32.754 2.00242 34.4967C2.16371 35.2628 2.83065 38.0322 2.91048 38.3838L1.47581 38.6354C1.39919 38.2983 0.729839 35.5145 0.564516 34.7306C0.182258 32.9153 0 31.379 0 29.5967C0 26.429 0.932258 22.2032 3.02177 18.6644C6.14032 13.383 11.371 10.2693 19.0161 10.2693C26.7097 10.2693 31.9371 13.1403 35.0032 18.0999C37.146 21.5644 38.0315 25.7024 38.0315 29.5241C38.0315 33.0644 35.8202 35.2475 31.5815 35.9314L31.3597 35.937C27.0935 35.4725 24.8677 33.2749 24.8677 29.5241C24.8677 25.7233 22.9677 23.6499 19.0266 23.1144C15.0726 23.7564 13.1653 25.8596 13.1653 29.5967Z" fill="#5281D7"/>
<path d="M13.1653 29.5967C13.1653 38.2774 18.1145 44.6653 28.1073 48.8411L27.4782 49.9999C16.9919 45.6177 11.7016 38.7903 11.7016 29.5967C11.7016 25.2096 14.1452 22.5612 18.8887 21.8314L19.1202 21.8282C23.8766 22.433 26.329 25.0636 26.329 29.5241C26.329 32.5927 27.9677 34.2435 31.4274 34.6507C34.9145 34.0588 36.5686 32.3959 36.5686 29.5241C36.5686 25.8975 35.725 21.9596 33.7169 18.7112C30.9008 14.1572 26.1605 11.5524 19.0153 11.5524C11.9468 11.5524 7.19839 14.3798 4.32016 19.2548C2.35081 22.5894 1.4621 26.6185 1.4621 29.5967C1.4621 31.2951 1.63548 32.754 2.00242 34.4967C2.16371 35.2628 2.83065 38.0322 2.91048 38.3838L1.47581 38.6354C1.39919 38.2983 0.729839 35.5145 0.564516 34.7306C0.182258 32.9153 0 31.379 0 29.5967C0 26.429 0.932258 22.2032 3.02177 18.6644C6.14032 13.383 11.371 10.2693 19.0161 10.2693C26.7097 10.2693 31.9371 13.1403 35.0032 18.0999C37.146 21.5644 38.0315 25.7024 38.0315 29.5241C38.0315 33.0644 35.8202 35.2475 31.5815 35.9314L31.3597 35.937C27.0935 35.4725 24.8677 33.2749 24.8677 29.5241C24.8677 25.7233 22.9677 23.6499 19.0266 23.1144C15.0726 23.7564 13.1653 25.8596 13.1653 29.5967Z" fill="#5281D7"/>
<path d="M13.6468 44.4443L12.6831 45.4104C7.22341 41.2185 5.85083 37.2169 5.85083 28.2402C5.85083 20.8209 11.3621 16.687 19.7476 16.687C27.3121 16.687 32.1807 21.9306 32.1807 29.5241H30.7178C30.7178 22.5886 26.4307 17.9709 19.7476 17.9709C12.1234 17.9709 7.31373 21.5789 7.31373 28.2402C7.31373 36.8838 8.57019 40.5467 13.6468 44.4443Z" fill="#5281D7"/>
<path d="M13.6468 44.4443L12.6831 45.4104C7.22341 41.2185 5.85083 37.2169 5.85083 28.2402C5.85083 20.8209 11.3621 16.687 19.7476 16.687C27.3121 16.687 32.1807 21.9306 32.1807 29.5241H30.7178C30.7178 22.5886 26.4307 17.9709 19.7476 17.9709C12.1234 17.9709 7.31373 21.5789 7.31373 28.2402C7.31373 36.8838 8.57019 40.5467 13.6468 44.4443Z" fill="#5281D7"/>
<path d="M13.6468 44.4443L12.6831 45.4104C7.22341 41.2185 5.85083 37.2169 5.85083 28.2402C5.85083 20.8209 11.3621 16.687 19.7476 16.687C27.3121 16.687 32.1807 21.9306 32.1807 29.5241H30.7178C30.7178 22.5886 26.4307 17.9709 19.7476 17.9709C12.1234 17.9709 7.31373 21.5789 7.31373 28.2402C7.31373 36.8838 8.57019 40.5467 13.6468 44.4443Z" fill="#5281D7"/>
<path d="M13.6468 44.4443L12.6831 45.4104C7.22341 41.2185 5.85083 37.2169 5.85083 28.2402C5.85083 20.8209 11.3621 16.687 19.7476 16.687C27.3121 16.687 32.1807 21.9306 32.1807 29.5241H30.7178C30.7178 22.5886 26.4307 17.9709 19.7476 17.9709C12.1234 17.9709 7.31373 21.5789 7.31373 28.2402C7.31373 36.8838 8.57019 40.5467 13.6468 44.4443Z" fill="#5281D7"/>
<path d="M18.2855 28.271L19.746 28.2097C20.217 36.8783 24.3186 41.0767 32.1815 41.0767V42.3605C23.4654 42.3605 18.7904 37.5742 18.2855 28.271Z" fill="#5281D7"/>
<path d="M18.2855 28.271L19.746 28.2097C20.217 36.8783 24.3186 41.0767 32.1815 41.0767V42.3605C23.4654 42.3605 18.7904 37.5742 18.2855 28.271Z" fill="#5281D7"/>
<path d="M18.2855 28.271L19.746 28.2097C20.217 36.8783 24.3186 41.0767 32.1815 41.0767V42.3605C23.4654 42.3605 18.7904 37.5742 18.2855 28.271Z" fill="#5281D7"/>
<path d="M18.2855 28.2709L19.7459 28.2096C20.2169 36.8781 24.3185 41.0765 32.1814 41.0765V42.3604C23.4653 42.3604 18.7903 37.5741 18.2855 28.2709ZM4.26288 12.554L3.05078 11.8354C6.48707 7.37008 11.8379 5.13379 19.0161 5.13379C26.1935 5.13379 31.5443 7.37008 34.9814 11.8354L33.7685 12.5531C30.6193 8.46201 25.7314 6.41927 19.0161 6.41927C12.3016 6.41927 7.41288 8.46201 4.26288 12.5548V12.554Z" fill="#5281D7"/>
<path d="M4.26288 12.554L3.05078 11.8354C6.48707 7.37008 11.8379 5.13379 19.0161 5.13379C26.1935 5.13379 31.5443 7.37008 34.9814 11.8354L33.7685 12.5531C30.6193 8.46202 25.7314 6.41927 19.0161 6.41927C12.3016 6.41927 7.41288 8.46202 4.26288 12.5548V12.554Z" fill="#5281D7"/>
<path d="M4.26288 12.554L3.05078 11.8354C6.48707 7.37008 11.8379 5.13379 19.0161 5.13379C26.1935 5.13379 31.5443 7.37008 34.9814 11.8354L33.7685 12.5531C30.6193 8.46202 25.7314 6.41927 19.0161 6.41927C12.3016 6.41927 7.41288 8.46202 4.26288 12.5548V12.554Z" fill="#5281D7"/>
<path d="M4.26288 12.554L3.05078 11.8355C6.48707 7.37016 11.8379 5.13387 19.0161 5.13387C26.1935 5.13387 31.5443 7.37016 34.9814 11.8355L33.7685 12.5532C30.6193 8.4621 25.7314 6.41935 19.0161 6.41935C12.3016 6.41935 7.41288 8.4621 4.26288 12.5548V12.554ZM8.4153 4.40484L7.67578 3.29758C11.9395 1.10323 15.7161 0 19.0161 0C22.3161 0 26.0927 1.10484 30.3564 3.29677L29.6169 4.40484C25.5588 2.31855 22.0218 1.28387 19.0161 1.28387C16.0097 1.28387 12.4726 2.31855 8.4153 4.40484Z" fill="#5281D7"/>
<path d="M8.4153 4.40484L7.67578 3.29758C11.9395 1.10323 15.7161 0 19.0161 0C22.3161 0 26.0927 1.10484 30.3564 3.29677L29.6169 4.40484C25.5588 2.31855 22.0218 1.28387 19.0161 1.28387C16.0097 1.28387 12.4726 2.31855 8.4153 4.40484Z" fill="#5281D7"/>
<path d="M8.4153 4.40484L7.67578 3.29758C11.9395 1.10323 15.7161 0 19.0161 0C22.3161 0 26.0927 1.10484 30.3564 3.29677L29.6169 4.40484C25.5588 2.31855 22.0218 1.28387 19.0161 1.28387C16.0097 1.28387 12.4726 2.31855 8.4153 4.40484Z" fill="#5281D7"/>
<path d="M8.4153 4.40484L7.67578 3.29758C11.9395 1.10323 15.7161 0 19.0161 0C22.3161 0 26.0927 1.10484 30.3564 3.29677L29.6169 4.40484C25.5588 2.31855 22.0218 1.28387 19.0161 1.28387C16.0097 1.28387 12.4726 2.31855 8.4153 4.40484Z" fill="#5281D7"/>
</g>
<defs>
<clipPath id="clip0">
<rect width="38.7097" height="50" fill="white"/>
</clipPath>
</defs>
</svg>
