<svg width="50" height="50" viewBox="0 0 50 50" fill="none" xmlns="http://www.w3.org/2000/svg">
<path d="M18.7499 8.33307C18.7499 7.22803 19.1889 6.16824 19.9702 5.38686C20.7516 4.60548 21.8114 4.1665 22.9164 4.1665C24.0215 4.1665 25.0813 4.60548 25.8626 5.38686C26.644 6.16824 27.083 7.22803 27.083 8.33307V12.4999H37.4999V22.9168H41.6668C42.7718 22.9168 43.8316 23.3558 44.613 24.1372C45.3943 24.9186 45.8333 25.9783 45.8333 27.0834C45.8333 28.1884 45.3943 29.2482 44.613 30.0296C43.8316 30.811 42.7718 31.2499 41.6668 31.2499H37.4999V41.6668H27.083V37.4999C27.083 36.3949 26.644 35.3351 25.8626 34.5537C25.0813 33.7724 24.0215 33.3334 22.9164 33.3334C21.8114 33.3334 20.7516 33.7724 19.9702 34.5537C19.1889 35.3351 18.7499 36.3949 18.7499 37.4999V41.6668H8.33301V31.2499H12.4999C13.5961 31.2365 14.6428 30.7916 15.4133 30.0117C16.1837 29.2318 16.6157 28.1797 16.6157 27.0834C16.6157 25.9871 16.1837 24.935 15.4133 24.1551C14.6428 23.3751 13.5961 22.9302 12.4999 22.9168H8.33301V12.4999H18.7499V8.33307Z" stroke="#5281D7" stroke-width="2" stroke-linecap="square"/>
</svg>
