<svg width="50" height="50" viewBox="0 0 50 50" fill="none" xmlns="http://www.w3.org/2000/svg">
<path d="M25 6.25V0V12.5M43.75 25C43.75 29.9728 41.7746 34.7419 38.2583 38.2583C34.7419 41.7746 29.9728 43.75 25 43.75L43.75 25ZM43.75 25C43.75 20.0272 41.7746 15.2581 38.2583 11.7417C34.7419 8.22544 29.9728 6.25 25 6.25L43.75 25ZM43.75 25H50H37.5H43.75ZM25 43.75C20.0272 43.75 15.2581 41.7746 11.7417 38.2583C8.22544 34.7419 6.25 29.9728 6.25 25L25 43.75ZM25 43.75V37.5V50V43.75ZM6.25 25C6.25 20.0272 8.22544 15.2581 11.7417 11.7417C15.2581 8.22544 20.0272 6.25 25 6.25L6.25 25ZM6.25 25H12.5H6.25ZM6.25 25H0H6.25Z" stroke="#5281D7" stroke-width="2"/>
<path d="M22.0501 26.6999C20.3144 27.1499 18.693 27.6714 17.1287 28.6785C16.7595 28.9249 16.4582 29.26 16.2523 29.6531C16.0463 30.0462 15.9424 30.4848 15.9501 30.9285V32.6571H34.0501V30.9499C34.0501 30.0642 33.6358 29.1785 32.8358 28.6642C31.3376 27.7301 29.6897 27.0608 27.9644 26.6856C28.7601 25.5194 29.1858 24.1403 29.1858 22.7285V21.4214C29.1868 20.8861 29.0821 20.3559 28.878 19.8611C28.6738 19.3663 28.374 18.9166 27.9959 18.5378C27.6177 18.159 27.1685 17.8584 26.6741 17.6534C26.1797 17.4483 25.6497 17.3428 25.1144 17.3428H24.893C24.3577 17.3418 23.8275 17.4465 23.3327 17.6506C22.8379 17.8548 22.3882 18.1546 22.0094 18.5327C21.6306 18.9109 21.33 19.3601 21.125 19.8545C20.9199 20.3489 20.8144 20.8789 20.8144 21.4142V22.7285C20.8144 24.1571 21.243 25.5428 22.0501 26.6999V26.6999Z" stroke="#5281D7" stroke-width="2" stroke-linecap="square"/>
</svg>
